<svg width="1114" height="461" viewBox="0 0 1114 461" fill="none" xmlns="http://www.w3.org/2000/svg">
<path d="M539.25 174.21H476C474.563 174.21 473.184 174.781 472.167 175.797C471.151 176.814 470.58 178.193 470.58 179.63V193.78H525.64C527.077 193.78 528.456 194.351 529.473 195.367C530.489 196.384 531.06 197.763 531.06 199.2V225.5C531.06 226.937 530.489 228.316 529.473 229.333C528.456 230.349 527.077 230.92 525.64 230.92H476C474.563 230.92 473.184 231.491 472.167 232.507C471.151 233.524 470.58 234.903 470.58 236.34V277.76C470.58 278.472 470.44 279.177 470.167 279.834C469.895 280.492 469.496 281.089 468.993 281.593C468.489 282.096 467.892 282.495 467.234 282.767C466.577 283.04 465.872 283.18 465.16 283.18H431.57C430.858 283.18 430.153 283.04 429.496 282.767C428.838 282.495 428.241 282.096 427.737 281.593C427.234 281.089 426.835 280.492 426.563 279.834C426.29 279.177 426.15 278.472 426.15 277.76V140.27C426.15 138.833 426.721 137.454 427.737 136.437C428.754 135.421 430.133 134.85 431.57 134.85H539.25C540.687 134.85 542.066 135.421 543.083 136.437C544.099 137.454 544.67 138.833 544.67 140.27V168.79C544.67 170.227 544.099 171.606 543.083 172.623C542.066 173.639 540.687 174.21 539.25 174.21V174.21Z" fill="#4C1821"/>
<path d="M607.34 283.17H572.14C570.703 283.17 569.324 282.599 568.307 281.583C567.291 280.566 566.72 279.187 566.72 277.75V140.27C566.72 138.833 567.291 137.454 568.307 136.437C569.324 135.421 570.703 134.85 572.14 134.85H607.33C608.767 134.85 610.146 135.421 611.163 136.437C612.179 137.454 612.75 138.833 612.75 140.27V277.75C612.75 279.186 612.18 280.563 611.166 281.579C610.152 282.595 608.776 283.167 607.34 283.17V283.17Z" fill="#4C1821"/>
<path d="M683.43 243.81H744C745.443 243.81 746.827 244.383 747.847 245.403C748.867 246.424 749.44 247.807 749.44 249.25V277.74C749.44 279.183 748.867 280.566 747.847 281.587C746.827 282.607 745.443 283.18 744 283.18H642.84C642.126 283.18 641.418 283.039 640.758 282.766C640.098 282.493 639.499 282.092 638.993 281.587C638.488 281.082 638.088 280.482 637.814 279.822C637.541 279.162 637.4 278.454 637.4 277.74V140.29C637.4 139.576 637.541 138.868 637.814 138.208C638.088 137.548 638.488 136.948 638.993 136.443C639.499 135.938 640.098 135.537 640.758 135.264C641.418 134.991 642.126 134.85 642.84 134.85H678C679.443 134.85 680.827 135.423 681.847 136.443C682.867 137.464 683.44 138.847 683.44 140.29L683.43 243.81Z" fill="#4C1821"/>
<path d="M883.4 172H814.4C812.88 172 811.423 172.604 810.348 173.678C809.274 174.753 808.67 176.21 808.67 177.73V189.96C808.67 189.976 808.676 189.991 808.688 190.002C808.699 190.014 808.714 190.02 808.73 190.02H873.43C874.95 190.02 876.407 190.624 877.482 191.698C878.556 192.773 879.16 194.23 879.16 195.75V218.31C879.16 219.83 878.556 221.287 877.482 222.362C876.407 223.436 874.95 224.04 873.43 224.04H814.43C812.91 224.04 811.453 224.644 810.378 225.718C809.304 226.793 808.7 228.25 808.7 229.77V243.83H887C888.52 243.83 889.977 244.434 891.052 245.508C892.126 246.583 892.73 248.04 892.73 249.56V277.46C892.73 278.98 892.126 280.437 891.052 281.512C889.977 282.586 888.52 283.19 887 283.19H769.89C768.37 283.19 766.913 282.586 765.838 281.512C764.764 280.437 764.16 278.98 764.16 277.46V140.58C764.16 139.06 764.764 137.603 765.838 136.528C766.913 135.454 768.37 134.85 769.89 134.85H883.4C884.92 134.85 886.377 135.454 887.452 136.528C888.526 137.603 889.13 139.06 889.13 140.58V166.25C889.133 167.004 888.986 167.751 888.7 168.449C888.413 169.146 887.991 169.78 887.459 170.315C886.926 170.849 886.294 171.273 885.597 171.562C884.901 171.851 884.154 172 883.4 172V172Z" fill="#4C1821"/>
<path d="M993 178.88C991.954 178.894 990.926 178.607 990.039 178.052C989.152 177.496 988.444 176.697 988 175.75C985 168.94 979.5 165.54 971.14 165.54C962.25 165.54 955.58 169.32 955.58 174.43C955.58 178.21 958.03 180.43 964.03 182.21L992.27 190.44C1026.27 200.23 1038.97 212.44 1038.97 235.58C1038.97 266.04 1012.73 286.5 973.37 286.5C950.02 286.5 930.46 278.94 918.23 265.37C911.79 258.18 908.42 250.82 906.87 239.73C906.766 238.963 906.827 238.182 907.05 237.441C907.272 236.699 907.651 236.014 908.161 235.431C908.671 234.849 909.3 234.382 910.005 234.063C910.71 233.743 911.476 233.579 912.25 233.58H947.13C948.349 233.589 949.53 234.007 950.483 234.767C951.437 235.527 952.108 236.584 952.39 237.77C954.5 246.25 962.13 250.92 974.27 250.92C985.61 250.92 993.62 246.25 993.62 239.58C993.62 235.13 990.29 232.46 981.17 229.58L951.82 220.46C935.36 215.35 926.25 210.01 919.82 202.23C914.188 195.15 911.131 186.366 911.15 177.32C911.15 149.97 935.83 131.51 972.08 131.51C995.43 131.51 1012.99 138.4 1022.78 151.3C1027.78 157.56 1030.13 163.52 1031.31 172.71C1031.41 173.477 1031.35 174.256 1031.13 174.997C1030.9 175.737 1030.53 176.422 1030.02 177.005C1029.51 177.588 1028.88 178.056 1028.18 178.377C1027.48 178.699 1026.71 178.867 1025.94 178.87L993 178.88Z" fill="#4C1821"/>
<path d="M581.35 362.22C580.84 362.219 580.345 362.047 579.945 361.731C579.544 361.416 579.261 360.975 579.14 360.48L572.08 331.16C572.16 333.53 572.16 333.6 572.16 335.05C572.16 335.74 572.16 337.64 572.24 340.7V359.94C572.24 360.545 572 361.125 571.572 361.552C571.145 361.98 570.565 362.22 569.96 362.22H560.55C559.945 362.22 559.365 361.98 558.938 361.552C558.51 361.125 558.27 360.545 558.27 359.94V313.6C558.27 312.995 558.51 312.415 558.938 311.988C559.365 311.56 559.945 311.32 560.55 311.32H577C577.509 311.321 578.002 311.491 578.403 311.805C578.803 312.118 579.087 312.556 579.21 313.05L585.5 338.64L591.79 313.05C591.913 312.556 592.197 312.118 592.597 311.805C592.998 311.491 593.491 311.321 594 311.32H610.47C611.075 311.32 611.655 311.56 612.082 311.988C612.51 312.415 612.75 312.995 612.75 313.6V359.95C612.75 360.555 612.51 361.135 612.082 361.562C611.655 361.99 611.075 362.23 610.47 362.23H601.06C600.455 362.23 599.875 361.99 599.448 361.562C599.02 361.135 598.78 360.555 598.78 359.95V342.23L598.86 337.23C598.86 335.4 598.86 334.64 598.94 331.23L591.88 360.55C591.759 361.045 591.476 361.486 591.075 361.801C590.675 362.117 590.18 362.289 589.67 362.29L581.35 362.22Z" fill="#C3002F"/>
<path d="M552.28 337.11C552.28 352.52 541.44 363.36 526.03 363.36C510.62 363.36 499.86 352.52 499.86 336.73C499.86 320.94 510.54 310.17 526.03 310.17C541.82 310.18 552.28 320.94 552.28 337.11ZM515.65 336.73C515.65 345.2 519.65 350.62 526.1 350.62C532.36 350.62 536.48 345.2 536.48 336.88C536.48 328.33 532.48 322.88 526.03 322.88C519.58 322.88 515.65 328.34 515.65 336.73Z" fill="#C3002F"/>
<path d="M440.88 349.76V360C440.88 360.602 440.641 361.179 440.215 361.605C439.789 362.031 439.212 362.27 438.61 362.27H428.41C427.808 362.27 427.231 362.031 426.805 361.605C426.379 361.179 426.14 360.602 426.14 360V349.8C426.14 349.198 426.379 348.621 426.805 348.195C427.231 347.769 427.808 347.53 428.41 347.53H438.61C439.205 347.53 439.777 347.764 440.201 348.181C440.626 348.598 440.87 349.165 440.88 349.76V349.76Z" fill="#C3002F"/>
<path d="M481.1 330.13C480.624 330.139 480.157 329.996 479.768 329.723C479.378 329.45 479.084 329.06 478.93 328.61C478.387 326.914 477.307 325.442 475.853 324.415C474.399 323.388 472.649 322.864 470.87 322.92C464.99 322.92 460.95 328.49 460.95 336.58C460.95 344.67 465.3 350.58 471.1 350.58C475.18 350.58 477.87 348.27 479 343.93C479.128 343.452 479.409 343.029 479.802 342.727C480.194 342.425 480.675 342.261 481.17 342.26H492.3C492.63 342.261 492.956 342.334 493.254 342.474C493.553 342.613 493.819 342.816 494.031 343.068C494.244 343.32 494.4 343.615 494.488 343.933C494.576 344.251 494.594 344.585 494.54 344.91C494.037 348.286 492.719 351.488 490.7 354.24C486.5 359.96 479.33 363.32 471.32 363.32C456.32 363.32 445.68 352.03 445.68 336.32C445.68 321.13 456.36 310.15 471.17 310.15C482.4 310.15 490.85 316.47 493.86 326.99C493.955 327.326 493.971 327.679 493.908 328.023C493.846 328.366 493.705 328.691 493.498 328.971C493.29 329.252 493.021 329.482 492.711 329.643C492.402 329.804 492.059 329.892 491.71 329.9L481.1 330.13Z" fill="#C3002F"/>
<path d="M264.85 265L323.61 323.76C324.148 324.297 324.834 324.663 325.58 324.812C326.326 324.96 327.1 324.883 327.803 324.592C328.506 324.301 329.107 323.809 329.53 323.176C329.953 322.544 330.179 321.801 330.18 321.04V262.32C330.18 261.814 330.08 261.314 329.887 260.847C329.693 260.38 329.41 259.955 329.052 259.598C328.695 259.24 328.27 258.957 327.803 258.763C327.336 258.57 326.836 258.47 326.33 258.47H267.58C266.826 258.477 266.092 258.704 265.466 259.125C264.841 259.545 264.352 260.14 264.062 260.835C263.771 261.53 263.691 262.295 263.831 263.036C263.971 263.776 264.325 264.459 264.85 265Z" fill="#F42534"/>
<path d="M211.79 258.47H78.07C77.3174 258.479 76.5837 258.708 75.9599 259.129C75.336 259.55 74.8492 260.144 74.5598 260.839C74.2704 261.534 74.191 262.299 74.3314 263.038C74.4719 263.778 74.826 264.46 75.35 265L142.21 331.86C142.568 332.218 142.992 332.503 143.46 332.696C143.928 332.89 144.429 332.99 144.935 332.99C145.441 332.99 145.942 332.89 146.41 332.696C146.878 332.503 147.302 332.218 147.66 331.86L214.51 265C215.034 264.46 215.388 263.778 215.529 263.038C215.669 262.299 215.59 261.534 215.3 260.839C215.011 260.144 214.524 259.55 213.9 259.129C213.276 258.708 212.543 258.479 211.79 258.47Z" fill="#D82237"/>
<path d="M230.55 359.09V280.09C230.549 279.329 230.323 278.586 229.9 277.954C229.477 277.321 228.876 276.829 228.173 276.538C227.47 276.247 226.696 276.17 225.95 276.318C225.204 276.467 224.518 276.833 223.98 277.37L144.98 356.37C144.443 356.908 144.077 357.594 143.928 358.34C143.78 359.086 143.857 359.86 144.148 360.563C144.439 361.266 144.931 361.867 145.564 362.29C146.196 362.713 146.939 362.939 147.7 362.94H226.7C227.721 362.94 228.7 362.534 229.422 361.812C230.144 361.09 230.55 360.111 230.55 359.09V359.09Z" fill="#C3002F"/>
<path d="M306.37 328.35L255.37 277.35C254.832 276.813 254.146 276.447 253.4 276.298C252.654 276.15 251.88 276.227 251.177 276.518C250.474 276.809 249.873 277.301 249.45 277.934C249.027 278.566 248.801 279.309 248.8 280.07V382.07C248.801 382.831 249.027 383.574 249.45 384.207C249.873 384.839 250.474 385.332 251.177 385.623C251.88 385.914 252.654 385.99 253.4 385.842C254.146 385.693 254.832 385.328 255.37 384.79L306.37 333.79C307.091 333.068 307.495 332.09 307.495 331.07C307.495 330.05 307.091 329.072 306.37 328.35Z" fill="#911A1D"/>
<path d="M267.58 243.06H371.44C372.201 243.059 372.944 242.833 373.576 242.41C374.209 241.987 374.701 241.386 374.992 240.683C375.283 239.98 375.36 239.206 375.212 238.46C375.063 237.714 374.697 237.028 374.16 236.49L322.23 184.56C321.872 184.202 321.448 183.917 320.98 183.723C320.512 183.53 320.011 183.43 319.505 183.43C318.999 183.43 318.498 183.53 318.03 183.723C317.562 183.917 317.138 184.202 316.78 184.56L264.85 236.49C264.312 237.029 263.946 237.716 263.798 238.463C263.65 239.21 263.727 239.984 264.019 240.687C264.312 241.391 264.806 241.991 265.44 242.414C266.074 242.836 266.818 243.061 267.58 243.06V243.06Z" fill="#A41F35"/>
<path d="M248.82 138.59V221.43C248.821 222.191 249.047 222.934 249.47 223.566C249.893 224.199 250.494 224.691 251.197 224.982C251.9 225.273 252.674 225.35 253.42 225.202C254.166 225.053 254.852 224.687 255.39 224.15L338.23 141.31C338.767 140.772 339.133 140.086 339.282 139.34C339.43 138.594 339.353 137.82 339.062 137.117C338.771 136.414 338.279 135.813 337.646 135.39C337.014 134.967 336.271 134.741 335.51 134.74H252.67C251.649 134.74 250.67 135.146 249.948 135.868C249.226 136.59 248.82 137.569 248.82 138.59V138.59Z" fill="#D6202A"/>
<path d="M116.44 147.71V239.21C116.44 240.231 116.846 241.21 117.568 241.932C118.29 242.654 119.269 243.06 120.29 243.06H211.79C212.551 243.059 213.294 242.833 213.926 242.41C214.559 241.987 215.051 241.386 215.342 240.683C215.633 239.98 215.71 239.206 215.562 238.46C215.413 237.714 215.047 237.028 214.51 236.49L123 145C122.462 144.467 121.778 144.104 121.034 143.957C120.291 143.811 119.52 143.887 118.82 144.176C118.119 144.466 117.52 144.955 117.097 145.584C116.673 146.213 116.445 146.952 116.44 147.71V147.71Z" fill="#AC162C"/>
<path d="M152.29 152.48L224 224.16C224.538 224.698 225.224 225.063 225.97 225.212C226.716 225.36 227.49 225.284 228.193 224.992C228.896 224.701 229.497 224.209 229.92 223.576C230.343 222.944 230.569 222.201 230.57 221.44V78.07C230.569 77.3092 230.343 76.5658 229.92 75.9335C229.497 75.3013 228.896 74.8085 228.193 74.5175C227.49 74.2265 226.716 74.1503 225.97 74.2985C225.224 74.4466 224.538 74.8125 224 75.35L152.29 147C151.927 147.358 151.639 147.785 151.442 148.255C151.246 148.725 151.145 149.23 151.145 149.74C151.145 150.25 151.246 150.755 151.442 151.225C151.639 151.695 151.927 152.122 152.29 152.48Z" fill="#EB0029"/>
<path d="M944.818 352.084L947.926 362H963.54L946.816 311.014H927.502L911.37 362H925.874L928.834 352.084H944.818ZM931.35 340.984C933.348 333.658 935.346 326.406 936.53 320.93H936.752C937.862 325.888 939.86 332.992 942.228 340.984H931.35ZM968.863 362H983.589V344.092H992.173C1002.9 344.092 1011.71 338.838 1011.71 327.368C1011.71 317.452 1004.01 311.014 992.469 311.014H968.863V362ZM983.589 321.522H989.731C993.875 321.522 996.909 323.224 996.909 327.59C996.909 331.808 993.949 333.584 989.731 333.584H983.589V321.522ZM1018.8 311.014V362H1033.82V311.014H1018.8Z" fill="#333333"/>
</svg>
